<svg xmlns="http://www.w3.org/2000/svg" viewBox="0 0 300 300"><defs><style>.cls-1{fill:#e05b19;}.cls-2{fill:#f6fff5;}</style></defs><g id="Camada_2" data-name="Camada 2"><g id="Camada_1-2" data-name="Camada 1"><rect class="cls-1" width="300" height="300" rx="150"/><g id="Camada_2-2" data-name="Camada 2"><g id="Camada_1-2-2" data-name="Camada 1-2"><g id="Instagram"><path class="cls-2" d="M162.57,150A12.58,12.58,0,1,1,150,137.43h0A12.59,12.59,0,0,1,162.57,150Z"/><path class="cls-2" d="M179.38,127.77a12.41,12.41,0,0,0-7.15-7.15,20.59,20.59,0,0,0-7-1.3c-4-.18-5.16-.22-15.24-.22s-11.24,0-15.22.22a20.48,20.48,0,0,0-7,1.3,12.48,12.48,0,0,0-7.16,7.15,20.66,20.66,0,0,0-1.29,7c-.19,4-.22,5.16-.22,15.24s0,11.24.22,15.22a20.55,20.55,0,0,0,1.29,7,12.5,12.5,0,0,0,7.16,7.16,20.55,20.55,0,0,0,7,1.29c4,.19,5.16.22,15.22.22s11.26,0,15.24-.22a20.66,20.66,0,0,0,7-1.29,12.51,12.51,0,0,0,7.15-7.16,20.48,20.48,0,0,0,1.3-7c.18-4,.22-5.16.22-15.22s0-11.26-.22-15.24A20.59,20.59,0,0,0,179.38,127.77ZM150,169.36A19.37,19.37,0,1,1,169.36,150v0A19.36,19.36,0,0,1,150,169.36Zm20.12-35a4.53,4.53,0,1,1,4.53-4.53v0A4.52,4.52,0,0,1,170.11,134.4Z"/></g></g></g></g></g></svg>