<svg xmlns="http://www.w3.org/2000/svg" viewBox="0 0 300 300"><defs><style>.cls-1{fill:#e05b19;}.cls-2{fill:#f6fff5;}</style></defs><g id="Camada_2" data-name="Camada 2"><g id="Camada_1-2" data-name="Camada 1"><rect class="cls-1" width="300" height="300" rx="150"/><g id="Camada_2-2" data-name="Camada 2"><g id="WhatsApp"><path class="cls-2" d="M150,117.44a32.58,32.58,0,0,0-27.6,49.86l.78,1.24-3.28,12,12.32-3.22,1.18.71A32.63,32.63,0,0,0,150,182.56h0a32.56,32.56,0,0,0,0-65.12ZM169.17,164c-.82,2.27-4.74,4.36-6.61,4.65a12.94,12.94,0,0,1-6.18-.39c-1.41-.46-3.23-1.05-5.57-2.06-9.81-4.25-16.23-14.12-16.72-14.78s-4-5.3-4-10.12a10.89,10.89,0,0,1,3.43-8.16,3.58,3.58,0,0,1,2.6-1.23l1.87,0c.61,0,1.41-.22,2.2,1.69s2.78,6.77,3,7.26a1.84,1.84,0,0,1,.08,1.72,27.2,27.2,0,0,1-2.44,3.34c-.45.54-1,1-.43,2a29.28,29.28,0,0,0,5.44,6.78,26.51,26.51,0,0,0,7.87,4.85c1,.49,1.54.42,2.12-.25s2.44-2.85,3.09-3.83,1.31-.82,2.2-.49,5.72,2.7,6.7,3.19,1.62.73,1.87,1.13S170,161.69,169.17,164Z"/></g></g></g></g></svg>