<svg xmlns="http://www.w3.org/2000/svg" viewBox="0 0 1080 1080">
  <defs>
    <style>
      .cls-1 {
        fill: #df5b19;
      }
    </style>
  </defs>
  <g id="Email">
    <g>
      <path class="cls-1" d="M656.3,437.1H424l116.1,99.6Z"/>
      <path class="cls-1" d="M539.8,560.5a10.5,10.5,0,0,1-6.7-2.5L406.2,449.2V642.8H673.5V449.2L546.5,558A10.1,10.1,0,0,1,539.8,560.5Z"/>
      <path class="cls-1" d="M540.1,251.8c-159,0-287.9,128.9-287.9,287.9S381.1,827.6,540.1,827.6,828,698.7,828,539.7,699,252,540.1,251.8ZM683.8,663.3H395.9a10.3,10.3,0,0,1-10.3-10.2V426.9a10.3,10.3,0,0,1,10.3-10.3H683.8a10.3,10.3,0,0,1,10.3,10.3V653.1A10.3,10.3,0,0,1,683.8,663.3Z"/>
    </g>
  </g>
</svg>
