<svg xmlns="http://www.w3.org/2000/svg" viewBox="0 0 417.7 417.7"><defs><style>.cls-1{fill:#f6fff5;}</style></defs><g id="Camada_2" data-name="Camada 2"><g id="Camada_1-2" data-name="Camada 1"><g id="Instagram"><path class="cls-1" d="M293.8,208.9a85,85,0,1,1-85-85h0A85.06,85.06,0,0,1,293.8,208.9Z"/><path class="cls-1" d="M407.4,58.6a83.91,83.91,0,0,0-48.3-48.3c-9-3.5-22.5-7.7-47.3-8.8C284.9.3,276.9,0,208.8,0s-76,.3-102.9,1.5C81,2.6,67.6,6.8,58.6,10.3A84.35,84.35,0,0,0,10.2,58.6c-3.5,9-7.6,22.5-8.7,47.3C.2,132.8,0,140.8,0,208.9s.2,76,1.5,102.9c1.1,24.9,5.2,38.3,8.7,47.3a84.8,84.8,0,0,0,48.4,48.4c9,3.5,22.4,7.6,47.3,8.7,26.9,1.3,34.9,1.5,102.9,1.5s76.1-.2,103-1.5c24.8-1.1,38.3-5.2,47.3-8.7a84.64,84.64,0,0,0,48.3-48.4c3.5-9,7.7-22.4,8.8-47.3,1.2-26.9,1.5-34.9,1.5-102.9s-.3-76.1-1.5-103C415.1,81.1,410.9,67.6,407.4,58.6ZM208.8,339.7A130.9,130.9,0,1,1,339.7,208.8v.1A130.85,130.85,0,0,1,208.9,339.7Zm136-236.3a30.6,30.6,0,1,1,30.6-30.6v.1a30.58,30.58,0,0,1-30.6,30.5Z"/></g></g></g></svg>