<svg xmlns="http://www.w3.org/2000/svg" viewBox="0 0 1080 1080">
  <defs>
    <style>
      .cls-1 {
        fill: #df5b19;
      }
    </style>
  </defs>
  <g id="Instagram">
    <g>
      <path class="cls-1" d="M594.3,540.5a55.8,55.8,0,1,1-55.8-55.8A55.8,55.8,0,0,1,594.3,540.5Z"/>
      <path class="cls-1" d="M669,441.8A55,55,0,0,0,637.2,410c-5.9-2.3-14.7-5-31.1-5.7s-22.9-1-67.6-1-50,.1-67.6,1-25.2,3.4-31.1,5.7A55,55,0,0,0,408,441.8c-2.3,5.9-5,14.7-5.7,31.1s-1,22.9-1,67.6.1,50,1,67.6,3.4,25.2,5.7,31.1A55,55,0,0,0,439.8,671c5.9,2.3,14.7,5,31.1,5.8s22.9.9,67.6.9,50-.1,67.6-.9,25.2-3.5,31.1-5.8A55.4,55.4,0,0,0,669,639.2c2.3-5.9,5-14.7,5.7-31.1s1-22.9,1-67.6-.1-50-1-67.6S671.3,447.7,669,441.8ZM538.5,626.5a86,86,0,1,1,86-86A86,86,0,0,1,538.5,626.5Zm89.4-155.3a20.1,20.1,0,1,1,20-20.1A20.1,20.1,0,0,1,627.9,471.2Z"/>
      <path class="cls-1" d="M538.5,249C377.5,249,247,379.5,247,540.5S377.5,832,538.5,832,830,701.5,830,540.5,699.5,249,538.5,249ZM704.9,609.5c-.8,17.8-3.7,30-7.8,40.6a85.7,85.7,0,0,1-49,49c-10.6,4.1-22.8,7-40.6,7.8s-23.5,1-69,1-51.2-.2-69-1-30-3.7-40.6-7.8a85.3,85.3,0,0,1-49-49c-4.1-10.6-7-22.8-7.8-40.6s-1-23.5-1-69,.2-51.2,1-69,3.7-30,7.8-40.6a85.3,85.3,0,0,1,49-49c10.6-4.1,22.8-7,40.6-7.8s23.5-1,69-1,51.2.2,69,1,30,3.7,40.6,7.8a85.3,85.3,0,0,1,49,49c4.1,10.6,7,22.8,7.8,40.6s1,23.5,1,69S705.7,591.7,704.9,609.5Z"/>
    </g>
  </g>
</svg>
