<svg xmlns="http://www.w3.org/2000/svg" viewBox="0 0 61.8 61.8"><defs><style>.cls-1{fill:#f6fff5;}</style></defs><g id="Camada_2" data-name="Camada 2"><g id="Camada_1-2" data-name="Camada 1"><g id="Camada_2-2" data-name="Camada 2"><g id="Camada_1-2-2" data-name="Camada 1-2"><g id="Instagram"><path class="cls-1" d="M43.47,30.91A12.58,12.58,0,1,1,30.89,18.33h0A12.58,12.58,0,0,1,43.47,30.91Z"/><path class="cls-1" d="M60.28,8.67a12.41,12.41,0,0,0-7.15-7.15,20.85,20.85,0,0,0-7-1.3C42.15,0,41,0,30.89,0S19.65,0,15.67.22a20.73,20.73,0,0,0-7,1.3A12.48,12.48,0,0,0,1.51,8.67a20.66,20.66,0,0,0-1.29,7C0,19.65,0,20.83,0,30.91S0,42.15.22,46.13a20.55,20.55,0,0,0,1.29,7,12.5,12.5,0,0,0,7.16,7.16,20.55,20.55,0,0,0,7,1.29c4,.19,5.16.22,15.22.22s11.26,0,15.24-.22a20.66,20.66,0,0,0,7-1.29,12.48,12.48,0,0,0,7.15-7.16,20.48,20.48,0,0,0,1.3-7c.18-4,.22-5.16.22-15.22s0-11.26-.22-15.24A20.59,20.59,0,0,0,60.28,8.67ZM30.89,50.26A19.37,19.37,0,1,1,50.26,30.89v0A19.35,19.35,0,0,1,30.91,50.26ZM51,15.3a4.53,4.53,0,1,1,4.52-4.53v0A4.52,4.52,0,0,1,51,15.3Z"/></g></g></g></g></g></svg>