<svg xmlns="http://www.w3.org/2000/svg" viewBox="0 0 452.3 452.4"><defs><style>.cls-1{fill:#f6fff5;}</style></defs><g id="Camada_2" data-name="Camada 2"><g id="WhatsApp"><path class="cls-1" d="M226.2,0C101.5,0,0,101.5,0,226.1A225.28,225.28,0,0,0,34.5,346.4l5.4,8.6L17.1,438.4,102.7,416l8.2,4.9A226.09,226.09,0,0,0,226,452.4h.1c124.7,0,226.1-101.4,226.2-226.1C452.4,101.4,351.1.1,226.2,0ZM359.3,323.3c-5.7,15.8-32.9,30.3-45.9,32.3s-26.6,2.5-42.9-2.7c-9.8-3.2-22.5-7.3-38.7-14.3C163.6,309.1,119,240.5,115.6,235.9s-27.7-36.8-27.7-70.3,17.5-49.9,23.8-56.7a25.07,25.07,0,0,1,18.1-8.5l13,.2c4.2.3,9.8-1.5,15.3,11.7s19.3,47.1,21,50.5,2.8,7.4.6,11.9-9.8,14.3-17,23.2c-3.1,3.8-7,7.1-3,13.9s17.6,29.1,37.8,47.1c26,23.2,47.9,30.3,54.7,33.7s10.7,2.9,14.7-1.7,17-19.8,21.5-26.6,9.1-5.7,15.3-3.4,39.7,18.7,46.5,22.1,11.3,5.1,13,7.9S364.9,307.4,359.3,323.3Z"/></g></g></svg>