<svg xmlns="http://www.w3.org/2000/svg" viewBox="0 0 1080 1080">
  <defs>
    <style>
      .cls-1 {
        fill: #df5b19;
      }
    </style>
  </defs>
  <g id="WhatsApp">
    <g>
      <path class="cls-1" d="M539.7,226.8c-164.7,0-298.3,133.5-298.3,298.3S375,823.3,539.7,823.3,838,689.8,838,525.1,704.4,226.8,539.7,226.8ZM546,698.9h0a178.2,178.2,0,0,1-85.3-21.7L366,702l25.3-92.5a178.1,178.1,0,0,1-23.8-89.2c.1-98.4,80.1-178.4,178.5-178.4A178.6,178.6,0,0,1,724.6,520.5C724.5,618.9,644.4,698.9,546,698.9Z"/>
      <path class="cls-1" d="M546.1,371.9c-81.8,0-148.4,66.5-148.4,148.3a147.4,147.4,0,0,0,22.6,78.9l3.6,5.6-15,54.8L465,644.7l5.5,3.3A147.9,147.9,0,0,0,546,668.6h0c81.8,0,148.4-66.5,148.4-148.3A148.3,148.3,0,0,0,546.1,371.9Zm87.3,212c-3.7,10.4-21.6,19.9-30.1,21.2a60.5,60.5,0,0,1-28.1-1.8,245.2,245.2,0,0,1-25.5-9.4c-44.7-19.3-73.9-64.3-76.2-67.3s-18.2-24.2-18.2-46.1,11.6-32.8,15.6-37.2a16.4,16.4,0,0,1,11.9-5.6c3,0,6,0,8.6.2s6.4-1.1,10,7.6,12.7,30.9,13.8,33.1,1.8,4.9.3,7.8-6.4,9.4-11.1,15.3c-2,2.4-4.6,4.6-2,9.1s11.6,19.1,24.9,30.9c17,15.2,31.4,19.9,35.8,22.1s7.1,1.9,9.7-1.1,11.1-13,14.1-17.5,6-3.7,10.1-2.2,26,12.3,30.4,14.5,7.5,3.3,8.6,5.2S637.1,573.5,633.4,583.9Z"/>
    </g>
  </g>
</svg>
