<svg xmlns="http://www.w3.org/2000/svg" viewBox="0 0 65.1 65.12"><defs><style>.cls-1{fill:#f6fff5;}</style></defs><g id="Camada_2" data-name="Camada 2"><g id="Camada_1-2" data-name="Camada 1"><g id="Camada_2-2" data-name="Camada 2"><g id="WhatsApp"><path class="cls-1" d="M32.56,0A32.57,32.57,0,0,0,5,49.86l.77,1.24-3.28,12,12.32-3.22,1.18.71a32.63,32.63,0,0,0,16.57,4.53h0A32.56,32.56,0,0,0,32.56,0ZM51.72,46.54c-.82,2.27-4.74,4.36-6.61,4.65a12.9,12.9,0,0,1-6.17-.39,58.74,58.74,0,0,1-5.57-2.06C23.55,44.49,17.13,34.62,16.64,34s-4-5.3-4-10.12a10.87,10.87,0,0,1,3.43-8.16,3.58,3.58,0,0,1,2.6-1.23l1.87,0c.61,0,1.42-.22,2.21,1.68s2.78,6.78,3,7.27a1.87,1.87,0,0,1,.09,1.72,27.53,27.53,0,0,1-2.45,3.34c-.45.54-1,1-.43,2a29.28,29.28,0,0,0,5.44,6.78,26.51,26.51,0,0,0,7.87,4.85c1,.49,1.54.41,2.12-.25S40.87,39,41.51,38s1.31-.82,2.21-.49,5.71,2.7,6.69,3.19,1.63.73,1.87,1.13S52.52,44.25,51.72,46.54Z"/></g></g></g></g></svg>